<svg width="145" height="28" viewBox="0 0 145 28" fill="none" xmlns="http://www.w3.org/2000/svg">
<path d="M6.172 5.112V12.33H15.568V16.578H6.172V27H0.736V0.881998H17.368V5.112H6.172ZM31.9626 27H26.5266V0.881998H31.9626V27ZM48.2611 5.112V12.33H57.6571V16.578H48.2611V27H42.8251V0.881998H59.4571V5.112H48.2611ZM80.2592 17.082L77.4332 9.09C77.2652 8.67 77.0852 8.178 76.8932 7.614C76.7132 7.05 76.5392 6.438 76.3712 5.778C76.2032 6.45 76.0232 7.074 75.8312 7.65C75.6512 8.214 75.4772 8.706 75.3092 9.126L72.5012 17.082H80.2592ZM89.3312 27H85.1372C84.6692 27 84.2852 26.892 83.9852 26.676C83.6972 26.448 83.4812 26.16 83.3372 25.812L81.5732 20.826H71.1692L69.4052 25.812C69.2852 26.112 69.0752 26.388 68.7752 26.64C68.4752 26.88 68.0972 27 67.6412 27H63.4112L73.6172 0.881998H79.1432L89.3312 27ZM111.296 5.886C111.128 6.162 110.954 6.366 110.774 6.498C110.606 6.618 110.384 6.678 110.108 6.678C109.844 6.678 109.556 6.588 109.244 6.408C108.944 6.216 108.59 6.012 108.182 5.796C107.774 5.58 107.306 5.382 106.778 5.202C106.25 5.01 105.632 4.914 104.924 4.914C103.676 4.914 102.74 5.196 102.116 5.76C101.492 6.312 101.18 7.038 101.18 7.938C101.18 8.514 101.348 8.994 101.684 9.378C102.032 9.75 102.482 10.074 103.034 10.35C103.598 10.626 104.234 10.872 104.942 11.088C105.65 11.304 106.376 11.544 107.12 11.808C107.864 12.06 108.59 12.36 109.298 12.708C110.006 13.056 110.636 13.494 111.188 14.022C111.752 14.55 112.202 15.198 112.539 15.966C112.886 16.722 113.06 17.646 113.06 18.738C113.06 19.926 112.85 21.042 112.43 22.086C112.022 23.118 111.428 24.024 110.648 24.804C109.868 25.572 108.902 26.178 107.75 26.622C106.61 27.066 105.314 27.288 103.862 27.288C103.034 27.288 102.206 27.204 101.378 27.036C100.562 26.868 99.7705 26.634 99.0025 26.334C98.2465 26.034 97.5325 25.674 96.8605 25.254C96.1885 24.834 95.6005 24.366 95.0965 23.85L96.6805 21.294C96.8125 21.102 96.9865 20.946 97.2025 20.826C97.4185 20.694 97.6465 20.628 97.8865 20.628C98.2105 20.628 98.5525 20.748 98.9125 20.988C99.2725 21.228 99.6865 21.492 100.154 21.78C100.622 22.068 101.162 22.332 101.774 22.572C102.398 22.812 103.142 22.932 104.006 22.932C105.266 22.932 106.238 22.644 106.922 22.068C107.618 21.492 107.966 20.634 107.966 19.494C107.966 18.834 107.792 18.3 107.444 17.892C107.108 17.484 106.664 17.142 106.112 16.866C105.56 16.59 104.93 16.356 104.222 16.164C103.514 15.96 102.788 15.738 102.044 15.498C101.3 15.258 100.574 14.97 99.8665 14.634C99.1585 14.298 98.5285 13.854 97.9765 13.302C97.4245 12.75 96.9745 12.066 96.6265 11.25C96.2905 10.434 96.1225 9.42 96.1225 8.208C96.1225 7.236 96.3145 6.294 96.6985 5.382C97.0825 4.47 97.6465 3.66 98.3905 2.952C99.1345 2.244 100.046 1.674 101.126 1.242C102.218 0.809998 103.466 0.593998 104.87 0.593998C106.442 0.593998 107.894 0.839998 109.226 1.332C110.57 1.812 111.704 2.484 112.628 3.348L111.296 5.886ZM144.751 0.881998V27H139.315V15.75H127.813V27H122.377V0.881998H127.813V11.97H139.315V0.881998H144.751Z" fill="#34251F"/>
</svg>
